<svg width="100" height="100" xmlns="http://www.w3.org/2000/svg">

 <g>
  <title>background</title>
  <rect fill="none" id="canvas_background" height="402" width="582" y="-1" x="-1"/>
 </g>
 <g>
  <title>Layer 1</title>
  <path id="svg_6" fill="#fcc4df" d="m90.787,43.178c-0.711,-2.188 -3.321,-2.771 -5.174,-3.127c1.289,-1.377 3.059,-3.382 2.348,-5.571c-1.129,-3.472 -6.9,-5.749 -13.609,-5.272c-4.064,0.289 -7.708,1.75 -10.267,3.085c0.484,-2.613 0.866,-6.508 -0.165,-10.665c-1.843,-7.428 -6.033,-11.314 -9.219,-11.314c-2.302,0 -3.662,2.302 -4.573,3.954c-0.911,-1.651 -2.271,-3.954 -4.571,-3.954c-3.188,0 -7.378,3.887 -9.221,11.314c-0.969,3.906 -0.721,7.78 -0.252,10.619c-2.554,-1.322 -6.16,-2.754 -10.178,-3.04c-6.714,-0.483 -12.483,1.799 -13.61,5.272c-0.712,2.188 1.058,4.194 2.348,5.571c-1.853,0.356 -4.463,0.939 -5.174,3.127c-0.984,3.03 1.417,8.216 7.912,12.264c3.416,2.129 7.178,3.09 10.023,3.521c-2.049,2.021 -4.525,5.008 -6.039,8.74c-2.876,7.093 -1.77,12.7 0.809,14.574c0.593,0.43 1.305,0.648 2.113,0.648c1.36,0 2.756,-0.619 3.91,-1.161c-0.233,1.872 -0.486,4.534 1.375,5.888c0.871,0.633 2.067,0.967 3.459,0.967c3.216,0 7.098,-1.714 10.65,-4.701c3.182,-2.676 5.161,-6.163 6.351,-8.62c1.312,2.675 3.4,5.978 6.542,8.62c3.552,2.988 7.434,4.701 10.649,4.701c1.393,0 2.589,-0.334 3.459,-0.967c1.862,-1.353 1.61,-4.015 1.376,-5.887c1.154,0.542 2.55,1.16 3.909,1.16c0,0 0,0 0.001,0c0.809,0 1.521,-0.218 2.113,-0.648c2.578,-1.874 3.684,-7.481 0.809,-14.573c-1.531,-3.776 -4.047,-6.79 -6.106,-8.81c2.635,-0.348 6.456,-1.188 10.091,-3.452c6.495,-4.046 8.895,-9.233 7.911,-12.263z"/>
  <path id="svg_7" fill="#fcc4df" d="m81.288,52.896c-4.452,2.775 -9.19,3.104 -11.214,3.244c-1,0.069 -1.943,0.135 -2.264,1.183c-0.182,0.595 0.043,1.276 0.534,1.658c1.657,1.289 5.73,4.829 7.766,9.85c2.472,6.097 1.355,10.186 0.208,11.019c-0.068,0.051 -0.188,0.076 -0.351,0.076c-0.774,0 -1.974,-0.564 -2.849,-0.977c-0.951,-0.447 -1.639,-0.771 -2.325,-0.771c-0.515,0 -0.879,0.187 -1.093,0.342c-0.986,0.717 -0.83,1.953 -0.648,3.384c0.111,0.884 0.373,2.954 -0.133,3.321c-0.346,0.251 -0.963,0.395 -1.696,0.395c-2.483,0 -5.743,-1.494 -8.718,-3.997c-4.1,-3.448 -6.215,-8.38 -6.934,-10.341c-0.217,-0.59 -0.83,-1.037 -1.46,-1.037c-1.078,0 -1.437,0.797 -2.028,2.119c-0.92,2.049 -2.832,6.313 -6.333,9.258c-2.977,2.504 -6.235,3.998 -8.72,3.998c-0.732,0 -1.352,-0.145 -1.695,-0.395c-0.506,-0.367 -0.244,-2.437 -0.133,-3.32c0.182,-1.432 0.338,-2.669 -0.648,-3.385c-0.215,-0.156 -0.579,-0.343 -1.092,-0.343c-0.688,0 -1.375,0.323 -2.326,0.772c-0.875,0.412 -2.074,0.977 -2.85,0.977c-0.162,0 -0.281,-0.025 -0.35,-0.076c-1.148,-0.834 -2.265,-4.922 0.208,-11.02c2.034,-5.019 6.11,-8.559 7.769,-9.848c0.499,-0.389 0.701,-1.047 0.506,-1.647c-0.194,-0.601 -0.745,-1.015 -1.377,-1.036c-2.102,-0.07 -7.484,-0.541 -12.075,-3.402c-5.583,-3.48 -7.083,-7.443 -6.645,-8.791c0.193,-0.596 2.243,-0.986 3.119,-1.153c1.417,-0.27 2.641,-0.503 3.018,-1.662c0.376,-1.159 -0.477,-2.067 -1.465,-3.119c-0.61,-0.649 -2.039,-2.169 -1.845,-2.765c0.428,-1.318 3.544,-3.268 8.875,-3.268c0.537,0 1.094,0.02 1.67,0.061c5.403,0.384 10.029,3.165 11.767,4.342c0.522,0.354 1.212,0.343 1.723,-0.028s0.735,-1.023 0.56,-1.63c-0.582,-2.019 -1.797,-7.283 -0.494,-12.533c1.584,-6.386 4.891,-9.037 6.309,-9.037c0.625,0 1.629,1.828 2.058,2.609c0.694,1.265 1.295,2.357 2.515,2.357c1.219,0 1.818,-1.092 2.512,-2.356c0.43,-0.781 1.434,-2.61 2.061,-2.61c1.417,0 4.723,2.651 6.307,9.037c1.264,5.09 0.113,9.699 -0.379,11.667c-0.246,0.984 -0.395,1.579 0.1,2.209c0.283,0.363 0.736,0.584 1.197,0.584c0,0 0.001,0 0.002,0c0.299,0 0.621,-0.103 0.869,-0.27c1.738,-1.178 6.365,-3.958 11.768,-4.342c0.575,-0.041 1.132,-0.061 1.67,-0.061c5.328,0 8.445,1.95 8.873,3.268c0.193,0.595 -1.234,2.115 -1.845,2.764c-0.988,1.052 -1.842,1.96 -1.465,3.12c0.376,1.159 1.601,1.392 3.017,1.662c0.876,0.167 2.926,0.557 3.119,1.153c0.434,1.349 -1.065,5.311 -6.65,8.791z"/>
  <path id="svg_8" fill="#ffffff" d="m59.611,52.73l-7.51,-2.44l4.642,-6.387c0.405,-0.559 0.282,-1.34 -0.276,-1.746c-0.559,-0.405 -1.34,-0.282 -1.746,0.276l-4.641,6.387l-4.641,-6.388c-0.406,-0.559 -1.188,-0.683 -1.746,-0.276c-0.559,0.406 -0.682,1.188 -0.276,1.746l4.64,6.388l-7.508,2.44c-0.656,0.213 -1.016,0.919 -0.803,1.575c0.172,0.528 0.662,0.864 1.188,0.864c0.128,0 0.259,-0.02 0.387,-0.062l7.509,-2.44l0,7.896c0,0.69 0.559,1.25 1.25,1.25c0.689,0 1.25,-0.56 1.25,-1.25l0,-7.896l7.509,2.44c0.128,0.042 0.259,0.062 0.387,0.062c0.526,0 1.017,-0.336 1.188,-0.864c0.213,-0.657 -0.146,-1.362 -0.803,-1.575z"/>
  <path id="svg_9" fill="#ffffff" d="m50.234,45.1c0.605,0 1.332,-3.895 1.332,-6.905s-0.596,-3.998 -1.332,-3.998s-1.332,0.987 -1.332,3.998s0.727,6.905 1.332,6.905z"/>
  <path id="svg_10" fill="#ffffff" d="m44.566,48.994c0.188,-0.576 -3.293,-2.47 -6.156,-3.4c-2.863,-0.931 -3.984,-0.668 -4.213,0.031c-0.227,0.701 0.527,1.573 3.391,2.503c2.863,0.93 6.791,1.442 6.978,0.866z"/>
  <path id="svg_11" fill="#ffffff" d="m41.383,60.392c-1.771,2.436 -1.869,3.585 -1.273,4.017c0.596,0.433 1.658,-0.016 3.43,-2.451c1.768,-2.436 3.469,-6.013 2.979,-6.369c-0.492,-0.357 -3.369,2.366 -5.136,4.803z"/>
  <path id="svg_12" fill="#ffffff" d="m53.393,55.77c-0.49,0.356 1.211,3.935 2.98,6.369c1.77,2.436 2.834,2.884 3.428,2.451c0.596,-0.434 0.498,-1.582 -1.271,-4.018s-4.647,-5.159 -5.137,-4.802z"/>
  <path id="svg_13" fill="#ffffff" d="m61.844,45.886c-2.861,0.93 -6.342,2.825 -6.154,3.401c0.188,0.576 4.115,0.064 6.979,-0.867c2.863,-0.93 3.617,-1.803 3.391,-2.502c-0.23,-0.7 -1.351,-0.963 -4.216,-0.032z"/>
 </g>
</svg>